<?xml version="1.0" encoding="UTF-8" standalone="no"?>
<svg width="512" height="512" viewBox="0 0 512 512" version="1.1" xmlns="http://www.w3.org/2000/svg">
  <defs>
    <linearGradient id="bg-gradient" x1="0%" y1="0%" x2="100%" y2="100%">
      <stop offset="0%" style="stop-color:#1a2639;stop-opacity:1" />
      <stop offset="100%" style="stop-color:#3a506b;stop-opacity:1" />
    </linearGradient>
  </defs>
  
  <!-- Background -->
  <rect width="512" height="512" rx="60" ry="60" fill="url(#bg-gradient)" />
  
  <!-- USB Symbol -->
  <g transform="translate(256, 256) scale(0.75)">
    <path d="M-50,-120 L-50,-50 L-120,-50 L-120,50 L-50,50 L-50,120 L50,120 L50,50 L120,50 L120,-50 L50,-50 L50,-120 Z" 
          fill="#2e8b57" stroke="#ffffff" stroke-width="10" />
  </g>
  
  <!-- Shark Silhouette -->
  <g transform="translate(256, 280) scale(0.9)">
    <path d="M-140,-20 C-100,-60 -80,-40 -60,-35 C-30,-30 -20,-25 0,-30 C20,-35 30,-25 40,-15 
             C60,-5 80,0 100,-10 C120,-20 140,-10 160,10 C140,15 120,25 100,15 
             C80,5 60,15 40,25 C20,35 0,35 -20,30 C-40,25 -60,30 -80,40 
             C-100,50 -120,40 -140,20 Z" 
          fill="#ffffff" opacity="0.8" />
    
    <!-- Shark Eye -->
    <circle cx="-40" cy="-15" r="6" fill="#1a2639" />
    
    <!-- Shark Fin -->
    <path d="M20,-30 L40,-70 L60,-30 Z" fill="#ffffff" opacity="0.7" />
  </g>
  
  <!-- Hexagonal Border for Military Look -->
  <path d="M256,40 L432,136 L432,376 L256,472 L80,376 L80,136 Z" 
        fill="none" stroke="#2e8b57" stroke-width="5" opacity="0.7" />
  
  <!-- "MILITARY GRADE" text -->
  <text x="256" y="420" font-family="Arial, sans-serif" font-size="20" font-weight="bold" 
        text-anchor="middle" fill="#ffffff">MILITARY GRADE</text>
</svg> 